<svg id="visual" viewBox="0 0 960 540" width="960" height="540" xmlns="http://www.w3.org/2000/svg" xmlns:xlink="http://www.w3.org/1999/xlink" version="1.1"><rect x="0" y="0" width="960" height="540" fill="#ffffff"></rect><g fill="#F7770F"><path d="M0 -109.5L24.6 -33.8L104.1 -33.8L39.8 12.9L64.4 88.6L0 41.8L-64.4 88.6L-39.8 12.9L-104.1 -33.8L-24.6 -33.8Z" transform="translate(124 394)"></path><path d="M0 -48.1L10.8 -14.9L45.8 -14.9L17.5 5.7L28.3 38.9L0 18.4L-28.3 38.9L-17.5 5.7L-45.8 -14.9L-10.8 -14.9Z" transform="translate(951 194)"></path><path d="M0 -59.5L13.3 -18.4L56.6 -18.4L21.6 7L35 48.1L0 22.7L-35 48.1L-21.6 7L-56.6 -18.4L-13.3 -18.4Z" transform="translate(464 215)"></path><path d="M0 -95.3L21.4 -29.5L90.7 -29.5L34.6 11.3L56 77.1L0 36.4L-56 77.1L-34.6 11.3L-90.7 -29.5L-21.4 -29.5Z" transform="translate(178 146)"></path><path d="M0 -93.4L21 -28.9L88.9 -28.9L33.9 11L54.9 75.6L0 35.7L-54.9 75.6L-33.9 11L-88.9 -28.9L-21 -28.9Z" transform="translate(707 527)"></path><path d="M0 -65.1L14.6 -20.1L61.9 -20.1L23.7 7.7L38.3 52.7L0 24.9L-38.3 52.7L-23.7 7.7L-61.9 -20.1L-14.6 -20.1Z" transform="translate(335 507)"></path><path d="M0 -83.1L18.6 -25.7L79 -25.7L30.2 9.8L48.8 67.2L0 31.7L-48.8 67.2L-30.2 9.8L-79 -25.7L-18.6 -25.7Z" transform="translate(728 69)"></path></g></svg>